<svg width="100" height="100" viewBox="0 0 100 100" fill="none" xmlns="http://www.w3.org/2000/svg">
<path d="M97.0703 91.6016V41.4062H82.0312V65.8203H71.4844L62.1094 56.4453H51.1719V91.6016H34.1973V26.7578H37.5V23.4746H68.75V33.0078H74.6094V23.4746H89.2832L71.7246 5.85938H37.5V2.53906H13.2812V5.85938H1.17188V23.4746H13.2812V26.7578H16.584V91.6016H0V97.4609H100V91.6016H97.0703ZM69.3334 11.7629L69.334 11.7637L75.1699 17.6152H63.4811L69.3334 11.7629ZM61.0912 11.7188L55.3711 17.4389L49.651 11.7188H61.0912ZM37.5 11.7188H41.3647L47.2611 17.6152H37.5V11.7188ZM13.2812 17.6152H7.03125V11.7188H13.2812V17.6152ZM28.3379 91.6016H22.4434V78.125H28.3379V91.6016ZM28.3379 72.2656H22.4434V58.9844H28.3379V72.2656ZM28.3379 53.125H22.4434V39.8438H28.3379V53.125ZM28.3379 33.9844H22.4434V26.7578H28.3379V33.9844ZM69.1406 85.9375H63.2812V76.7578H69.1406V85.9375ZM87.1094 85.9375H81.25V76.7578H87.1094V85.9375Z" fill="black"/>
</svg>
